<?xml version="1.0" encoding="UTF-8" standalone="no"?>
<!DOCTYPE svg PUBLIC "-//W3C//DTD SVG 1.1//EN"
 "http://www.w3.org/Graphics/SVG/1.1/DTD/svg11.dtd">
<!-- Generated by graphviz version 2.43.0 (0)
 -->
<!-- Title: erd Pages: 1 -->
<svg width="224pt" height="204pt"
 viewBox="0.00 0.00 223.81 204.00" xmlns="http://www.w3.org/2000/svg" xmlns:xlink="http://www.w3.org/1999/xlink">
<g id="graph0" class="graph" transform="scale(1 1) rotate(0) translate(4 200)">
<title>erd</title>
<polygon fill="white" stroke="transparent" points="-4,4 -4,-200 219.81,-200 219.81,4 -4,4"/>
<!-- photos -->
<g id="node1" class="node">
<title>photos</title>
<polygon fill="none" stroke="black" points="0,-109.5 0,-195.5 96.08,-195.5 96.08,-109.5 0,-109.5"/>
<text text-anchor="middle" x="48.04" y="-180.3" font-family="Times,serif" font-size="14.00">photos</text>
<polyline fill="none" stroke="black" points="0,-173.5 96.08,-173.5 "/>
<text text-anchor="start" x="8" y="-158.3" font-family="Times,serif" font-size="14.00">__v : number</text>
<text text-anchor="start" x="8" y="-144.3" font-family="Times,serif" font-size="14.00">_id : objectId</text>
<text text-anchor="start" x="8" y="-130.3" font-family="Times,serif" font-size="14.00">title : string</text>
<text text-anchor="middle" x="48.04" y="-116.3" font-family="Times,serif" font-size="14.00">user : objectId</text>
</g>
<!-- users -->
<g id="node2" class="node">
<title>users</title>
<polygon fill="none" stroke="black" points="60.71,-0.5 60.71,-72.5 151.37,-72.5 151.37,-0.5 60.71,-0.5"/>
<text text-anchor="middle" x="106.04" y="-57.3" font-family="Times,serif" font-size="14.00">users</text>
<polyline fill="none" stroke="black" points="60.71,-50.5 151.37,-50.5 "/>
<text text-anchor="start" x="68.71" y="-35.3" font-family="Times,serif" font-size="14.00">__v : number</text>
<text text-anchor="start" x="68.71" y="-21.3" font-family="Times,serif" font-size="14.00">_id : objectId</text>
<text text-anchor="middle" x="106.04" y="-7.3" font-family="Times,serif" font-size="14.00">name : string</text>
</g>
<!-- photos&#45;&gt;users -->
<g id="edge1" class="edge">
<title>photos&#45;&gt;users</title>
<path fill="none" stroke="black" d="M69.47,-109.37C74.07,-100.34 78.94,-90.76 83.58,-81.65"/>
<polygon fill="black" stroke="black" points="86.7,-83.23 88.12,-72.73 80.46,-80.05 86.7,-83.23"/>
</g>
<!-- usergroups -->
<g id="node3" class="node">
<title>usergroups</title>
<polygon fill="none" stroke="black" points="114.28,-109.5 114.28,-195.5 215.81,-195.5 215.81,-109.5 114.28,-109.5"/>
<text text-anchor="middle" x="165.04" y="-180.3" font-family="Times,serif" font-size="14.00">usergroups</text>
<polyline fill="none" stroke="black" points="114.28,-173.5 215.81,-173.5 "/>
<text text-anchor="start" x="122.28" y="-158.3" font-family="Times,serif" font-size="14.00">__v : number</text>
<text text-anchor="start" x="122.28" y="-144.3" font-family="Times,serif" font-size="14.00">_id : objectId</text>
<text text-anchor="start" x="122.28" y="-130.3" font-family="Times,serif" font-size="14.00">name : string</text>
<text text-anchor="middle" x="165.04" y="-116.3" font-family="Times,serif" font-size="14.00">users : objectId</text>
</g>
<!-- usergroups&#45;&gt;users -->
<g id="edge2" class="edge">
<title>usergroups&#45;&gt;users</title>
<path fill="none" stroke="black" d="M143.24,-109.37C138.56,-100.34 133.61,-90.76 128.89,-81.65"/>
<polygon fill="black" stroke="black" points="131.98,-80 124.27,-72.73 125.76,-83.22 131.98,-80"/>
</g>
</g>
</svg>
