<?xml version="1.0" encoding="UTF-8" standalone="no"?>
<!DOCTYPE svg PUBLIC "-//W3C//DTD SVG 1.1//EN"
 "http://www.w3.org/Graphics/SVG/1.1/DTD/svg11.dtd">
<!-- Generated by graphviz version 2.43.0 (0)
 -->
<!-- Title: erd Pages: 1 -->
<svg width="224pt" height="204pt"
 viewBox="0.00 0.00 223.81 204.00" xmlns="http://www.w3.org/2000/svg" xmlns:xlink="http://www.w3.org/1999/xlink">
<g id="graph0" class="graph" transform="scale(1 1) rotate(0) translate(4 200)">
<title>erd</title>
<polygon fill="white" stroke="transparent" points="-4,4 -4,-200 219.81,-200 219.81,4 -4,4"/>
<!-- usergroups -->
<g id="node1" class="node">
<title>usergroups</title>
<polygon fill="none" stroke="black" points="0,-109.5 0,-195.5 101.53,-195.5 101.53,-109.5 0,-109.5"/>
<text text-anchor="middle" x="50.77" y="-180.3" font-family="Times,serif" font-size="14.00">usergroups</text>
<polyline fill="none" stroke="black" points="0,-173.5 101.53,-173.5 "/>
<text text-anchor="start" x="8" y="-158.3" font-family="Times,serif" font-size="14.00">__v : number</text>
<text text-anchor="start" x="8" y="-144.3" font-family="Times,serif" font-size="14.00">_id : objectId</text>
<text text-anchor="start" x="8" y="-130.3" font-family="Times,serif" font-size="14.00">name : string</text>
<text text-anchor="middle" x="50.77" y="-116.3" font-family="Times,serif" font-size="14.00">users : objectId</text>
</g>
<!-- users -->
<g id="node3" class="node">
<title>users</title>
<polygon fill="none" stroke="black" points="63.44,-0.5 63.44,-72.5 154.09,-72.5 154.09,-0.5 63.44,-0.5"/>
<text text-anchor="middle" x="108.77" y="-57.3" font-family="Times,serif" font-size="14.00">users</text>
<polyline fill="none" stroke="black" points="63.44,-50.5 154.09,-50.5 "/>
<text text-anchor="start" x="71.44" y="-35.3" font-family="Times,serif" font-size="14.00">__v : number</text>
<text text-anchor="start" x="71.44" y="-21.3" font-family="Times,serif" font-size="14.00">_id : objectId</text>
<text text-anchor="middle" x="108.77" y="-7.3" font-family="Times,serif" font-size="14.00">name : string</text>
</g>
<!-- usergroups&#45;&gt;users -->
<g id="edge1" class="edge">
<title>usergroups&#45;&gt;users</title>
<path fill="none" stroke="black" d="M72.2,-109.37C76.8,-100.34 81.67,-90.76 86.3,-81.65"/>
<polygon fill="black" stroke="black" points="89.43,-83.23 90.84,-72.73 83.19,-80.05 89.43,-83.23"/>
</g>
<!-- photos -->
<g id="node2" class="node">
<title>photos</title>
<polygon fill="none" stroke="black" points="119.72,-109.5 119.72,-195.5 215.81,-195.5 215.81,-109.5 119.72,-109.5"/>
<text text-anchor="middle" x="167.77" y="-180.3" font-family="Times,serif" font-size="14.00">photos</text>
<polyline fill="none" stroke="black" points="119.72,-173.5 215.81,-173.5 "/>
<text text-anchor="start" x="127.72" y="-158.3" font-family="Times,serif" font-size="14.00">__v : number</text>
<text text-anchor="start" x="127.72" y="-144.3" font-family="Times,serif" font-size="14.00">_id : objectId</text>
<text text-anchor="start" x="127.72" y="-130.3" font-family="Times,serif" font-size="14.00">title : string</text>
<text text-anchor="middle" x="167.77" y="-116.3" font-family="Times,serif" font-size="14.00">user : objectId</text>
</g>
<!-- photos&#45;&gt;users -->
<g id="edge2" class="edge">
<title>photos&#45;&gt;users</title>
<path fill="none" stroke="black" d="M145.96,-109.37C141.29,-100.34 136.33,-90.76 131.61,-81.65"/>
<polygon fill="black" stroke="black" points="134.7,-80 127,-72.73 128.49,-83.22 134.7,-80"/>
</g>
</g>
</svg>
