<?xml version="1.0" encoding="UTF-8" standalone="no"?>
<!DOCTYPE svg PUBLIC "-//W3C//DTD SVG 1.1//EN"
 "http://www.w3.org/Graphics/SVG/1.1/DTD/svg11.dtd">
<!-- Generated by graphviz version 2.40.1 (20161225.0304)
 -->
<!-- Title: 1 Pages: 1 -->
<svg width="330pt" height="100pt"
 viewBox="0.00 0.00 330.00 100.00" xmlns="http://www.w3.org/2000/svg" xmlns:xlink="http://www.w3.org/1999/xlink">
<g id="graph0" class="graph" transform="scale(1 1) rotate(0) translate(4 96)">
<title>1</title>
<polygon fill="#ffffff" stroke="transparent" points="-4,4 -4,-96 326,-96 326,4 -4,4"/>
<!-- users -->
<g id="node1" class="node">
<title>users</title>
<polygon fill="none" stroke="#000000" points="0,-8 0,-84 90,-84 90,-8 0,-8"/>
<text text-anchor="middle" x="45" y="-68.8" font-family="Times,serif" font-size="14.00" fill="#000000">users</text>
<polyline fill="none" stroke="#000000" points="0,-61 90,-61 "/>
<text text-anchor="start" x="8" y="-45.8" font-family="Times,serif" font-size="14.00" fill="#000000">__v : number</text>
<text text-anchor="start" x="8" y="-30.8" font-family="Times,serif" font-size="14.00" fill="#000000">_id : objectId</text>
<text text-anchor="middle" x="45" y="-15.8" font-family="Times,serif" font-size="14.00" fill="#000000">name : string</text>
</g>
<!-- photos -->
<g id="node2" class="node">
<title>photos</title>
<polygon fill="none" stroke="#000000" points="108.5,-.5 108.5,-91.5 203.5,-91.5 203.5,-.5 108.5,-.5"/>
<text text-anchor="middle" x="156" y="-76.3" font-family="Times,serif" font-size="14.00" fill="#000000">photos</text>
<polyline fill="none" stroke="#000000" points="108.5,-68.5 203.5,-68.5 "/>
<text text-anchor="start" x="116.5" y="-53.3" font-family="Times,serif" font-size="14.00" fill="#000000">__v : number</text>
<text text-anchor="start" x="116.5" y="-38.3" font-family="Times,serif" font-size="14.00" fill="#000000">_id : objectId</text>
<text text-anchor="start" x="116.5" y="-23.3" font-family="Times,serif" font-size="14.00" fill="#000000">title : string</text>
<text text-anchor="middle" x="156" y="-8.3" font-family="Times,serif" font-size="14.00" fill="#000000">user : objectId</text>
</g>
<!-- usergroups -->
<g id="node3" class="node">
<title>usergroups</title>
<polygon fill="none" stroke="#000000" points="222,-.5 222,-91.5 322,-91.5 322,-.5 222,-.5"/>
<text text-anchor="middle" x="272" y="-76.3" font-family="Times,serif" font-size="14.00" fill="#000000">usergroups</text>
<polyline fill="none" stroke="#000000" points="222,-68.5 322,-68.5 "/>
<text text-anchor="start" x="230" y="-53.3" font-family="Times,serif" font-size="14.00" fill="#000000">__v : number</text>
<text text-anchor="start" x="230" y="-38.3" font-family="Times,serif" font-size="14.00" fill="#000000">_id : objectId</text>
<text text-anchor="start" x="230" y="-23.3" font-family="Times,serif" font-size="14.00" fill="#000000">name : string</text>
<text text-anchor="middle" x="272" y="-8.3" font-family="Times,serif" font-size="14.00" fill="#000000">users : objectId</text>
</g>
</g>
</svg>
